HIERARCHY
ROOT Hips
{
    OFFSET 14.032432556152344 94.31307220458984 -18.309558868408203
    CHANNELS 6 Xposition Yposition Zposition Zrotation Xrotation Yrotation
    JOINT RightUpLeg
    {
        OFFSET -14.032432556152344 0.0 0.0
        CHANNELS 3 Zrotation Xrotation Yrotation
        JOINT RightLeg
        {
            OFFSET 0.0 -48.53917694091797 0.0
            CHANNELS 3 Zrotation Xrotation Yrotation
            JOINT RightFoot
            {
                OFFSET 0.0 -45.773895263671875 0.0
                CHANNELS 3 Zrotation Xrotation Yrotation
                End Site
                {
                    OFFSET 0.0 0.0 18.309558868408203
                }
            }
        }
    }
    JOINT LeftUpLeg
    {
        OFFSET 14.032432556152344 0.0 0.0
        CHANNELS 3 Zrotation Xrotation Yrotation
        JOINT LeftLeg
        {
            OFFSET 0.0 -48.53917694091797 0.0
            CHANNELS 3 Zrotation Xrotation Yrotation
            JOINT LeftFoot
            {
                OFFSET 0.0 -45.773895263671875 0.0
                CHANNELS 3 Zrotation Xrotation Yrotation
                End Site
                {
                    OFFSET 0.0 0.0 18.309558868408203
                }
            }
        }
    }
    JOINT Spine
    {
        OFFSET 0.0 25.67096519470215 0.0
        CHANNELS 3 Zrotation Xrotation Yrotation
        JOINT Spine3
        {
            OFFSET 0.0 26.10367774963379 0.0
            CHANNELS 3 Zrotation Xrotation Yrotation
            JOINT Neck
            {
                OFFSET 0.0 11.355786323547363 0.0
                CHANNELS 3 Zrotation Xrotation Yrotation
                End Site
                {
                    OFFSET 0.0 4.542314529418945 0.0
                }
            }
            JOINT LeftArm
            {
                OFFSET 14.76789665222168 0.0 0.0
                CHANNELS 3 Zrotation Xrotation Yrotation
                JOINT LeftForeArm
                {
                    OFFSET 29.23101806640625 0.0 0.0
                    CHANNELS 3 Zrotation Xrotation Yrotation
                    JOINT LeftHand
                    {
                        OFFSET 24.717853546142578 0.0 0.0
                        CHANNELS 3 Zrotation Xrotation Yrotation
                        End Site
                        {
                            OFFSET 9.887142181396484 0.0 0.0
                        }
                    }
                }
            }
            JOINT RightArm
            {
                OFFSET -14.76789665222168 0.0 0.0
                CHANNELS 3 Zrotation Xrotation Yrotation
                JOINT RightForeArm
                {
                    OFFSET -29.23101806640625 0.0 0.0
                    CHANNELS 3 Zrotation Xrotation Yrotation
                    JOINT RightHand
                    {
                        OFFSET -24.717853546142578 0.0 0.0
                        CHANNELS 3 Zrotation Xrotation Yrotation
                        End Site
                        {
                            OFFSET -9.887142181396484 0.0 0.0
                        }
                    }
                }
            }
        }
    }
}
MOTION
Frames: 7
Frame Time: 0.03333333333333333
-0.0001071939550456591 93.78289794921875 -0.0008397715864703059 -5.562229641839486 -16.048716017950202 -11.146581333357659 3.826416005022577 25.730995375226954 -3.679287175641386 -3.3206603797460117 8.43008594938253 -0.6254242760554515 0.0 0.0 1.8636062586700292e-16 4.6255136143669455 26.327816166847175 -4.126336831140134 -0.6583498199171633 7.07077305986988 -0.9435477669703377 0.0 0.0 1.4908850069360235e-16 -0.2763357242930856 32.90365802791858 -2.3552071747370866 -8.335474899853553e-08 -6.293656684998646e-07 -1.5179123604011349 9.955307677625216 -5.031830936143324 -177.5966820118521 112.26738489561843 -6.760148898222582 -174.0596106294722 -1.3962692042807624e-06 -3.655236067784016e-07 21.2407795361898 -1.1927080055488188e-15 0.0 0.0 -111.7667749595939 -35.088059012096195 168.9636717438537 8.844665394329018e-07 -2.599373945567805e-06 -24.776640656827873 -2.782985346280577e-15 0.0 0.0
-0.00013396092981565744 93.78291320800781 -0.0008653920376673341 -5.64035666038664 -15.98651921555757 -11.150618904652086 3.874764991250218 25.59695081973792 -3.684455593967986 -3.5074295933058233 8.431822407855307 -0.6062457972786928 -1.987846675914698e-16 -1.2424041724466862e-17 7.454425034680117e-17 4.681685366523589 26.197947012618386 -4.13481634341475 -0.9637143098023151 7.00689048567637 -0.9050463635874717 3.724233438979821e-32 3.1805546814635176e-15 -1.3417965062424215e-15 -0.03876776448178868 32.982737937208 -2.492391369984738 -1.7557994034090438e-07 1.2616939147350631e-06 -1.5573970166237814 9.843333085496651 -4.961615157680599 -177.39596497722906 111.94872664854527 -11.771194866146956 -173.72638325500478 1.5416979657656552e-06 9.869147770269307e-07 21.190688166114715 3.1805546814635168e-15 8.827812596100317e-32 3.1805546814635168e-15 -111.97885866815689 -34.96106896579918 168.82252780058633 1.545665538104e-06 -1.933208466294839e-06 -25.00642296691549 0.0 0.0 3.1805546814635168e-15
-0.00014930083125364035 93.78292846679688 -0.000875285710208118 -5.6073001302620575 -16.016712229570903 -11.07127928125315 3.9126067511677975 25.383505768433345 -3.6546294774951016 -3.9360834111785588 8.347991758889187 -0.5393564538387445 0.0 0.0 -2.7332891793827095e-16 4.676974167797579 26.223331319384833 -4.118100893472377 -1.2325259027925048 6.6636916522322 -0.8242527412924081 3.975693351829396e-16 3.2054027649124505e-15 -5.466578358765419e-16 0.03191607301946804 33.20006220163917 -2.523454718755432 -2.51337658341097e-07 7.978490870468131e-08 -1.6439077454972812 9.183623935488058 -4.790532202425998 -177.7528256086812 111.7660034417016 -18.11033582237561 -173.21657773222634 -1.8136921845681968e-06 2.8579330447509936e-06 21.473250476034025 3.975693351829395e-15 0.0 0.0 -112.11123200688368 -34.97861586223018 168.76767084427854 -4.479767313868104e-06 1.1635289550392093e-07 -24.887208528161334 3.578124016646457e-15 3.1805546814635176e-15 3.1805546814635176e-15
-0.00017506572476122528 93.78292846679688 -0.000882242398802191 -5.648369848217551 -16.02877001548624 -11.147380087063334 3.5997867430604478 25.21378570998187 -3.5121544880690285 -3.8599660214855995 8.441650643244712 -0.5214235452800555 -3.975693351829396e-16 -1.551763932908259e-33 4.472655020808071e-16 4.0990416285673295 26.529037169392467 -3.915921564271251 -0.7357647016555391 6.240385607747325 -0.7711789044152829 0.0 0.0 1.9381505090168305e-15 0.4859148477194994 33.06680884668383 -2.783527611886315 -7.84402453413287e-08 -5.707541613774436e-07 -1.6736275499078148 8.638003198048155 -4.2205392399159045 -177.11362217363046 111.66830769469497 -22.450764031647573 -173.01484284859413 3.7961703787483414e-06 2.4430423842924624e-06 21.68903419525078 1.5902773407317588e-15 4.4139062980501586e-32 3.1805546814635176e-15 -112.1382003241849 -34.836743075479085 168.92428645508818 3.199579934671106e-07 -4.214692576490127e-06 -25.243989293481345 -3.180554681463516e-15 0.0 0.0
-0.000174198517925106 93.78289031982422 -0.0008723512873984873 -5.4870529186416155 -16.06786779859495 -11.0477011608372 3.31469408495474 25.13643892501103 -3.4933374701621487 -4.0620027047014355 8.543705597814208 -0.4955171358844609 -3.340602911121946e-34 -2.4848083448933725e-17 -1.5405811738338909e-15 3.546333335763134 26.655062990084303 -3.8014187491492453 -0.3233562302722718 6.019738971780325 -0.7596400270576652 -3.975693351829396e-16 -3.275946080584102e-33 9.442271710594815e-16 0.6103223792356663 33.01479150711128 -2.992852170009787 1.6400415062483395e-07 5.659541900181879e-07 -1.5660802295804461 7.930211367091666 -3.742571683625689 -177.17987727967534 112.44045847431417 -25.8597650921342 -172.90050114138776 -1.6427621697532944e-06 2.5050235643362497e-06 22.229713400204325 7.951386703658792e-15 2.2069531490250793e-31 3.1805546814635168e-15 -112.2699225863772 -34.8520691996043 168.92653273212457 -3.471373374420835e-06 3.0154478747119637e-07 -25.737180999512248 -2.3854160110976376e-15 3.1805546814635168e-15 -3.1805546814635168e-15
-0.00014532360364682972 93.7828140258789 -0.0008449318702332675 -5.5600537148019695 -16.158898158732576 -11.197505949740004 3.1622332450930735 25.272073662373252 -3.468230453889238 -4.310929901362818 8.551132990750421 -0.44434929445300425 0.0 0.0 -6.957463365701442e-16 3.213084382476909 27.096269719307458 -3.729925332702813 -0.23580922567448742 5.456823937731539 -0.6704515240341572 -1.9878466759146977e-16 9.483001812217137e-34 -5.466578358765419e-16 1.0112772291396375 32.71310300762378 -3.21611257448591 1.0638531115467314e-07 -9.164427942796155e-07 -1.3872194464604475 7.193130177005935 -3.3471218389167756 -176.9477008847292 112.40695841764047 -26.98914579200167 -173.1423580794516 -1.7503450040480608e-06 -2.0593221086394333e-06 22.54661025534122 -1.5902773407317582e-15 -4.4139062980501586e-32 3.1805546814635164e-15 -112.51272279571316 -34.821465869230714 168.92757942746854 -1.3963979036633958e-06 -3.423473530625076e-06 -25.690011489643105 2.3854160110976384e-15 0.0 0.0
-0.000160844050697051 93.78274536132812 -0.0008252172847278416 -5.5032642566499925 -16.212297108518257 -11.36206368755361 2.685323779244729 25.27667674190466 -3.383274655287259 -4.277505374081609 8.622043579796292 -0.4262064958667271 0.0 0.0 -9.93923337957349e-17 2.814678621895941 27.419222526911394 -3.71486645832649 -0.04866157371980564 5.462052045669437 -0.6769028314304079 -1.562540071331233e-34 -2.4848083448933725e-17 -7.20594420019078e-16 1.3579657985017857 32.27595957227314 -3.5149743779968863 9.438037353987026e-08 -1.6311614101482787e-07 -1.432392899067076 6.047990994652002 -3.1538966476250754 -176.6116284090365 112.53814077355655 -27.683549928558737 -173.35107240200423 -3.1036791611963297e-06 9.011022822039137e-07 22.550062320618828 6.3611093629270335e-15 1.7655625192200634e-31 3.1805546814635168e-15 -112.05064088148967 -33.74407610033897 169.37453190942355 3.7977461129020067e-06 8.904821614699381e-07 -25.279650451397774 -7.951386703658792e-15 2.2069531490250793e-31 -3.1805546814635168e-15
